<svg width="142" height="43" viewBox="0 0 142 43" fill="none" xmlns="http://www.w3.org/2000/svg">
<path d="M65.124 20.16C62.8467 21 60.56 21.42 58.264 21.42C55.968 21.42 54.3067 20.9627 53.28 20.048C52.272 19.1333 51.768 17.724 51.768 15.82C51.768 15.0173 51.8987 13.832 52.16 12.264C52.72 9.016 53.7093 6.67333 55.128 5.236C56.5467 3.79867 58.8987 3.08 62.184 3.08C62.8933 3.08 63.78 3.15467 64.844 3.304C65.908 3.45333 66.692 3.62133 67.196 3.808L65.656 8.092C64.256 7.83067 62.968 7.7 61.792 7.7C60.6347 7.7 59.804 7.79333 59.3 7.98C58.796 8.16667 58.4973 8.54 58.404 9.1L57.032 17.024H58.796C59.4307 17.024 59.8973 16.9587 60.196 16.828C60.5133 16.6787 60.7187 16.352 60.812 15.848L60.952 15.092H59.608L60.364 10.808H66.776L65.124 20.16ZM51.376 12.124C51.3387 12.2733 51.3013 12.4787 51.264 12.74L40.26 11.564H51.46L51.376 12.124ZM51.068 14.252C51.012 14.6813 50.984 15.0733 50.984 15.428L39.952 14.252H51.068ZM52.132 8.876L51.796 10.024L40.932 8.876H52.132ZM51.012 16.94C51.0867 17.4627 51.152 17.8547 51.208 18.116L40.316 16.94H51.012ZM53.28 6.188C53.0187 6.67333 52.832 7.04667 52.72 7.308L42.248 6.188H53.28ZM51.852 19.656C52.0947 20.0853 52.3747 20.4307 52.692 20.692L43.004 19.656H51.852ZM55.94 3.5C55.3987 3.836 54.9787 4.144 54.68 4.424L46.112 3.5H55.94ZM80.7648 16.632C81.4928 16.632 82.0342 16.548 82.3888 16.38C82.7435 16.1933 82.9768 15.7827 83.0888 15.148L84.3768 7.868H82.1368C81.4275 7.868 80.8955 7.96133 80.5408 8.148C80.1862 8.316 79.9528 8.71733 79.8408 9.352L78.5528 16.632H80.7648ZM83.0608 3.08C85.4315 3.08 87.1208 3.54667 88.1288 4.48C89.1368 5.39467 89.6408 6.81333 89.6408 8.736C89.6408 10.6587 89.3328 12.6747 88.7168 14.784C88.1195 16.8747 87.1582 18.508 85.8328 19.684C84.5262 20.8413 82.6035 21.42 80.0648 21.42C77.5448 21.42 75.7808 20.9627 74.7728 20.048C73.7648 19.1147 73.2608 17.6867 73.2608 15.764C73.2608 14.8493 73.3915 13.6453 73.6528 12.152C73.9142 10.64 74.2595 9.34267 74.6888 8.26C75.1182 7.15867 75.6968 6.20667 76.4248 5.404C77.8248 3.85467 80.0368 3.08 83.0608 3.08ZM72.8408 12.124C72.8035 12.2733 72.7662 12.4787 72.7288 12.74L61.7248 11.564H72.9248L72.8408 12.124ZM72.5328 14.252C72.4768 14.6813 72.4488 15.0733 72.4488 15.428L61.4168 14.252H72.5328ZM73.5968 8.876L73.2608 10.024L62.3968 8.876H73.5968ZM72.4768 16.94C72.5515 17.4627 72.6168 17.8547 72.6728 18.116L61.7808 16.94H72.4768ZM74.7448 6.188C74.4835 6.67333 74.2968 7.04667 74.1848 7.308L63.7128 6.188H74.7448ZM73.3168 19.656C73.5595 20.0853 73.8395 20.4307 74.1568 20.692L64.4688 19.656H73.3168ZM77.4048 3.5C76.8635 3.836 76.4435 4.144 76.1448 4.424L67.5768 3.5H77.4048ZM103.597 16.632C104.325 16.632 104.866 16.548 105.221 16.38C105.576 16.1933 105.809 15.7827 105.921 15.148L107.209 7.868H104.969C104.26 7.868 103.728 7.96133 103.373 8.148C103.018 8.316 102.785 8.71733 102.673 9.352L101.385 16.632H103.597ZM105.893 3.08C108.264 3.08 109.953 3.54667 110.961 4.48C111.969 5.39467 112.473 6.81333 112.473 8.736C112.473 10.6587 112.165 12.6747 111.549 14.784C110.952 16.8747 109.99 18.508 108.665 19.684C107.358 20.8413 105.436 21.42 102.897 21.42C100.377 21.42 98.6129 20.9627 97.6049 20.048C96.5969 19.1147 96.0929 17.6867 96.0929 15.764C96.0929 14.8493 96.2235 13.6453 96.4849 12.152C96.7462 10.64 97.0915 9.34267 97.5209 8.26C97.9502 7.15867 98.5289 6.20667 99.2569 5.404C100.657 3.85467 102.869 3.08 105.893 3.08ZM95.6729 12.124C95.6355 12.2733 95.5982 12.4787 95.5609 12.74L84.5569 11.564H95.7569L95.6729 12.124ZM95.3649 14.252C95.3089 14.6813 95.2809 15.0733 95.2809 15.428L84.2489 14.252H95.3649ZM96.4289 8.876L96.0929 10.024L85.2289 8.876H96.4289ZM95.3089 16.94C95.3835 17.4627 95.4489 17.8547 95.5049 18.116L84.6129 16.94H95.3089ZM97.5769 6.188C97.3155 6.67333 97.1289 7.04667 97.0169 7.308L86.5449 6.188H97.5769ZM96.1489 19.656C96.3915 20.0853 96.6715 20.4307 96.9889 20.692L87.3009 19.656H96.1489ZM100.237 3.5C99.6955 3.836 99.2755 4.144 98.9769 4.424L90.4089 3.5H100.237ZM129.369 3.5C131.777 3.5 133.485 3.92933 134.493 4.788C135.52 5.628 136.033 7 136.033 8.904C136.033 9.87467 135.921 10.9947 135.697 12.264C135.137 15.4 134.176 17.64 132.813 18.984C131.469 20.328 129.294 21 126.289 21H118.841L121.921 3.5H129.369ZM128.641 7.98H126.429L124.945 16.52H127.157C127.885 16.52 128.426 16.436 128.781 16.268C129.136 16.0813 129.369 15.6707 129.481 15.036L130.461 9.464C130.48 9.352 130.489 9.20267 130.489 9.016C130.489 8.58667 130.34 8.30667 130.041 8.176C129.742 8.04533 129.276 7.98 128.641 7.98ZM118.001 20.916L106.129 19.656H118.225L118.001 20.916ZM118.953 15.512L107.081 14.252H119.177L118.953 15.512ZM119.429 12.824L107.557 11.564H119.653L119.429 12.824ZM119.905 10.136L108.033 8.876H120.129L119.905 10.136ZM120.381 7.448L108.509 6.188H120.577L120.381 7.448ZM118.477 18.2L106.605 16.94H118.701L118.477 18.2ZM120.829 4.76L108.985 3.5H121.053L120.829 4.76ZM66.608 29.98H62.744L60.476 43H55.156L57.424 29.98H53.588L54.4 25.5H67.42L66.608 29.98ZM54.288 42.916L42.416 41.656H54.512L54.288 42.916ZM55.24 37.512L43.368 36.252H55.464L55.24 37.512ZM55.716 34.824L43.844 33.564H55.94L55.716 34.824ZM56.192 32.136L44.32 30.876H56.416L56.192 32.136ZM54.764 40.2L42.892 38.94H54.988L54.764 40.2ZM52.832 29.448L40.96 28.188H53.028L52.832 29.448ZM53.28 26.76L41.436 25.5H53.504L53.28 26.76ZM83.8438 36.392H78.5238L78.1598 38.52H84.6838L83.8998 43H72.0558L75.1358 25.5H86.8398L85.3838 29.98H79.6438L79.2518 32.332H84.5718L83.8438 36.392ZM71.2158 42.916L59.3438 41.656H71.4398L71.2158 42.916ZM72.1678 37.512L60.2957 36.252H72.3918L72.1678 37.512ZM72.6438 34.824L60.7717 33.564H72.8678L72.6438 34.824ZM73.1198 32.136L61.2477 30.876H73.3438L73.1198 32.136ZM73.5958 29.448L61.7237 28.188H73.7918L73.5958 29.448ZM71.6918 40.2L59.8197 38.94H71.9158L71.6918 40.2ZM74.0438 26.76L62.1997 25.5H74.2678L74.0438 26.76ZM103.012 43H92.3722L95.4522 25.5H100.772L98.4762 38.52H103.796L103.012 43ZM91.5322 42.916L79.6602 41.656H91.7562L91.5322 42.916ZM92.4842 37.512L80.6122 36.252H92.7082L92.4842 37.512ZM92.9602 34.824L81.0882 33.564H93.1842L92.9602 34.824ZM93.4362 32.136L81.5642 30.876H93.6602L93.4362 32.136ZM93.9122 29.448L82.0402 28.188H94.1082L93.9122 29.448ZM92.0082 40.2L80.1362 38.94H92.2322L92.0082 40.2ZM94.3602 26.76L82.5162 25.5H94.5842L94.3602 26.76ZM120.43 43H109.79L112.87 25.5H118.19L115.894 38.52H121.214L120.43 43ZM108.95 42.916L97.0781 41.656H109.174L108.95 42.916ZM109.902 37.512L98.0301 36.252H110.126L109.902 37.512ZM110.378 34.824L98.5061 33.564H110.602L110.378 34.824ZM110.854 32.136L98.9821 30.876H111.078L110.854 32.136ZM111.33 29.448L99.4581 28.188H111.526L111.33 29.448ZM109.426 40.2L97.5541 38.94H109.65L109.426 40.2ZM111.778 26.76L99.9341 25.5H112.002L111.778 26.76ZM125.915 42.916L114.071 41.656H126.139L125.915 42.916ZM126.391 40.2L114.547 38.94H126.587L126.391 40.2ZM126.587 37.512L114.715 36.252H126.335L126.587 37.512ZM126.055 34.824L114.183 33.564H125.803L126.055 34.824ZM124.739 28.188L124.991 29.448L113.147 28.188H124.739ZM125.271 30.876L125.523 32.136L113.679 30.876H125.271ZM124.487 26.76L112.643 25.5H124.235L124.487 26.76ZM130.955 25.5L131.319 31.66H131.515L134.091 25.5H139.971L132.915 38.24L132.103 43H126.783L127.595 38.24L125.075 25.5H130.955Z" fill="url(#paint0_linear)"/>
<path d="M20 31.35L18.55 30.03C13.4 25.36 10 22.28 10 18.5C10 15.42 12.42 13 15.5 13C17.24 13 18.91 13.81 20 15.09C21.09 13.81 22.76 13 24.5 13C27.58 13 30 15.42 30 18.5C30 22.28 26.6 25.36 21.45 30.04L20 31.35Z" fill="#EE0202"/>
<path d="M36.3636 3H3.63636C1.63636 3 0 5 0 7.44444V34.1111C0 36.5556 1.63636 38.5556 3.63636 38.5556H12.7273V43H27.2727V38.5556H36.3636C38.3636 38.5556 39.9818 36.5556 39.9818 34.1111L40 7.44444C40 5 38.3636 3 36.3636 3ZM36.3636 34.1111H3.63636V7.44444H36.3636V34.1111Z" fill="#D128EE"/>
<defs>
<linearGradient id="paint0_linear" x1="125.543" y1="-7.525" x2="59.2148" y2="68.904" gradientUnits="userSpaceOnUse">
<stop offset="0.121444" stop-color="#B860B4"/>
<stop offset="0.692708" stop-color="#FF00F5"/>
<stop offset="1" stop-color="#028BEE" stop-opacity="0"/>
</linearGradient>
</defs>
</svg>
